<?xml version="1.0" encoding="utf-8"?>
<!-- Generator: Adobe Illustrator 22.0.1, SVG Export Plug-In . SVG Version: 6.00 Build 0)  -->
<svg version="1.1" id="레이어_1" xmlns="http://www.w3.org/2000/svg" xmlns:xlink="http://www.w3.org/1999/xlink" x="0px"
	 y="0px" viewBox="0 0 240 254.7" style="enable-background:new 0 0 240 254.7;" xml:space="preserve">
<style type="text/css">
	.st0{fill:#060101;}
	.st1{fill:#FFFFFF;}
</style>
<g>
	<path class="st0" d="M238.2,197.3l-5.7-89.5l0,0c-2-26.1-4.2-52.1-6.7-78.2l0,0c0,0-0.3-6.2-0.6-11.1C226.4,1,215.6,1,215.6,1h-3.9
		L41.9,1C34,1.4,25.3,0.6,25,10.1C22.4,74.9,14.6,134,1.4,197.5c-0.1,0.4-0.1,0.8-0.2,1.2c-0.3,2-0.3,3.6,0,5l0,0c0,0,0,0.1,0.1,0.3
		c0,0.2,0.1,0.4,0.2,0.6c0,0.1,0.1,0.3,0.1,0.5c0.1,0.2,0.1,0.3,0.2,0.5c2.2,6.6,13,29.1,63.2,42.3v0c17.3,4.8,35.7,6.4,51.2,5.9
		c45-1.5,86.2-20.7,121-48.2C240.2,203.1,238.6,200.2,238.2,197.3z"/>
	<g>
		<path class="st1" d="M158,86c6.5,0,11-4.4,11-11c0-6.6-4.5-11-11-11c-6.5,0-11,4.4-11,11C147,81.7,151.5,86,158,86z"/>
		<path class="st1" d="M87.9,86c6.5,0,11-4.4,11-11c0-6.6-4.5-11-11-11c-6.5,0-11,4.4-11,11C76.9,81.7,81.4,86,87.9,86z"/>
		<path class="st1" d="M201.9,150.8c-0.1-0.1-0.2-0.2-0.4-0.3c-0.1,0-0.1-0.1-0.2-0.1c-3.7-2.7-8.9-5.2-8.9-5.2l0,0
			c-0.6-0.3-1.3-0.7-1.9-1c-1.7-0.7-3.4-1.3-5.2-1.9c-3.3-1.2-6.6-2.4-10-3.4c0,0,0,0,0,0c0,0,0,0,0,0c0,0-0.1,0-0.1,0
			c-0.1,0-0.2,0-0.3-0.1c0,0-0.1,0-0.1,0c0,0,0,0,0,0c0,0,0,0,0,0c-9.8-3.3-20.1-2.1-20.1-2.1l0,0c-4.6,0.3-13.1,3.1-16,4.1
			c-0.2,0.1-0.4,0.1-0.6,0.2c-0.3,0.1-0.4,0.1-0.4,0.1l0,0c-1.7,0.6-3.3,1.3-5,1.9c-0.3,0.1-0.6,0.2-1,0.3
			c-5.8,1.7-10.4,1.7-12.7,1.5c-3.2-0.4-6.3-1.1-8.6-1.6c-1.1-0.3-2.3-0.5-3.4-0.8c-13.7-3.4-28.5-8.1-42.4-3.1
			c-7.2,2.6-13.2,7.6-20.1,10.8c-1.1,0.5-0.9,1.6-0.3,2.3c0,0,0.1,0.1,0.3,0.2c0.2,0.1,0.4,0.2,0.7,0.3c0.4,0.1,1,0.2,1.8,0.2
			c0,0,0,0,0.1,0c0.1,0,0.1,0,0.2,0c0.1,0,0.2,0,0.2,0c0,0,0,0,0,0c0.3,0,0.5,0,0.8,0c0.1,0,0.3,0,0.4,0l0,0c1,0,1.9-0.1,2.9-0.2
			c3.8-0.2,10.1-0.5,15.2-0.7l0.6,0l25.9-0.2h11H140l10.3,0.2c0.2,0,18.6,0.5,31,1c3.1,0.2,6.3,0.4,9.4,0.6c0,0,0,0,0,0
			c0.4,0,0.8,0,1.2,0h7.2c0.1,0,0.1,0,0.2,0c0,0,0,0,0,0c0.1,0,0.2,0,0.2,0c0,0,0.1,0,0.1,0c0.1,0,0.1,0,0.2,0c0.1,0,0.1,0,0.2,0
			c0.7-0.2,1.3-0.4,1.9-0.9C202.4,152.2,202.5,151.4,201.9,150.8z"/>
		<path class="st1" d="M106.1,134C106.1,134,106.1,134,106.1,134c0,0.1,0,0.1,0,0.1c0,0,0,0,0,0.1c0,0,0,0,0,0.1
			c0.3,0.9,1.8,4.1,8.9,5.9v0c2.4,0.7,5,0.9,7.2,0.8c6.3-0.2,12.1-2.9,17-6.8c0.4-0.3,0.5-0.6,0.5-1l0,0l0,0c0-0.1,0-0.2,0-0.3
			l-0.5-4l0,0c0-0.7-0.1-1.3-0.1-2c-0.1-2.1-0.3-4.2-0.4-6.3c-0.3-4-0.6-7.9-1-11.9l0,0c0,0,0-0.9-0.1-1.6c0.2-2.5-1.4-2.5-1.4-2.5
			h-0.6h-23.8c-0.7-0.1-2.3-0.1-2.4,1.3c-0.4,9.1-1.5,18.1-3.3,27c0,0.1,0,0.1,0,0.2C106.1,133.6,106.1,133.8,106.1,134L106.1,134z"
			/>
	</g>
</g>
</svg>
